<?xml version="1.0" encoding="utf-8"?>
<!-- Generator: Adobe Illustrator 24.3.0, SVG Export Plug-In . SVG Version: 6.00 Build 0)  -->
<svg version="1.1" id="Layer_1" xmlns="http://www.w3.org/2000/svg" xmlns:xlink="http://www.w3.org/1999/xlink" x="0px" y="0px"
	 viewBox="0 0 300 100" style="enable-background:new 0 0 300 100;" xml:space="preserve">
<style type="text/css">
	.st0{fill:#FF4600;}
	.st1{fill:#FFFFFF;}
	.st2{fill:#000433;}
</style>
<g id="_x23_ff4600ff">
	<path class="st0" d="M227.5,5.6c4.9-2.4,11,2.6,9.7,7.9c-0.8,5.1-7.6,7.5-11.4,4C221.8,14.4,222.8,7.4,227.5,5.6 M230.1,6.1
		c-4.5-0.1-7.3,5.7-4.6,9.3c2.1,3.5,7.8,3.3,9.6-0.3C237.6,11.4,234.6,5.9,230.1,6.1z"/>
	<path class="st0" d="M7.2,6.9c69.9,0,139.9,0,209.8,0c2.6-0.5,5.2,2.5,3.8,4.9c-1.4,1.9-3.2,3.4-4.8,5.1c-18,18-36,36-54,54
		c-7.1,7-13.7,14.8-23,19c-17.4,8.7-39.3,5.6-54.5-6.4c-21.3-18.1-54.6-19-77.3-3.1C7.2,55.9,7.2,31.4,7.2,6.9 M28.2,20.2
		c-3.8,1.5-3.9,6.3-3.9,9.7c0.1,3-0.1,7.1,3.1,8.6c5.2,1.9,11,0.8,16.2,2.8c0.3,2,0.1,4.1,0,6.2c-4,0.2-8,0.2-11.9,0
		c-0.1-1.6-0.3-3.1-0.4-4.7c-2.5,0-5,0-7.5,0c0.4,3.6-0.5,8.9,3.6,10.6c4.4,1,9.1,0.4,13.6,0.6c3-0.1,6.8,0.5,8.8-2.3
		c2-3.1,1.6-7.1,1.5-10.6c-0.1-2.5-0.8-5.7-3.6-6.5c-5.2-1.3-10.6-1.1-15.8-2.2c0-2,0.1-4.1,0.2-6.1c3.6-0.2,7.3-0.2,10.9,0
		c0.2,1.5,0.3,2.9,0.5,4.4c2.5,0,4.9,0,7.4,0c-0.3-3,0.1-6.3-1.7-8.9c-1.7-2.2-4.8-1.8-7.2-1.9C37.5,19.9,32.7,19.2,28.2,20.2
		 M54.8,25.8c1.4,0,2.8,0,4.1,0c0,7.3,0,14.6,0,21.9c-1.4,0-2.7,0-4.1,0c0,2.1,0,4.1,0,6.2c5.2,0,10.4,0,15.6,0c0-2.1,0-4.1,0-6.2
		c-1.3,0-2.6,0-3.9,0c0-2.8,0-5.6,0-8.4c3.8,0,7.7,0,11.5,0c0,2.8,0,5.6,0,8.5c-1.3,0-2.6,0-3.8,0c0,2.1,0,4.1,0,6.2
		c5.2,0,10.4,0,15.6,0c0-2.1,0-4.1,0-6.2c-1,0-3.1,0-4.1,0c0-7.3,0-14.7,0-22c1.4,0,2.7,0,4.1,0c0-2,0-4.1,0-6.1
		c-5.2,0-10.4,0-15.6,0c0,2,0,4.1,0,6.1c1.3,0,2.6,0,3.9,0c0,2.6,0,5.1,0,7.6c-3.8,0-7.7,0-11.5,0c0-2.5,0-5.1,0-7.6
		c1.3,0,2.6,0,3.9,0c0-2,0-4.1,0-6.1c-5.2,0-10.4,0-15.6,0C54.8,21.7,54.8,23.8,54.8,25.8 M92.9,19.7c0,2,0,4.1,0,6.1
		c1.4,0,2.7,0,4.1,0c0,7.3,0,14.6,0,22c-1.4,0-2.7,0-4.1,0c0,2.1,0,4.1,0,6.2c4.7,0,9.5,0,14.2,0c0-2,0-4.1,0-6.2
		c-0.8,0-2.3,0-3.1,0c0.1-7.1-0.2-14.3,0.1-21.4c3.2,8.8,4.4,18.3,7.4,27.1c2.7,0.9,5.6,0.3,8.4,0.4c2.7-9.1,4.4-18.4,7.2-27.4
		c0.7,7.1,0.1,14.2,0.3,21.3c-0.8,0-2.3,0-3,0c0,2.1,0,4.1,0,6.2c4.9,0,9.8,0,14.8,0c0-2,0-4.1,0-6.2c-1.4,0-2.7,0-4.1,0
		c0-7.3,0-14.6,0-21.9c1.4,0,2.8,0,4.1,0c0-2,0-4.1,0-6.1c-5.8,0-11.6-0.1-17.4,0.1c-2.1,8-3.5,16.1-5.6,24c-2-7-3.3-14.2-5-21.3
		c-0.3-1.2-0.5-3-2.2-2.7C103.7,19.6,98.3,19.8,92.9,19.7z"/>
	<path class="st0" d="M227.6,7.8c1.8,0.4,4.2-0.3,5.5,1.3c0.6,1.7-0.5,3.1-1.2,4.4c0.4,1.1,0.9,2.1,1.3,3.1c-1.8-0.9-2.8-2.6-4.1-4
		c0,0.9-0.1,2.6-0.1,3.5h-1.5C227.6,13.4,227.6,10.6,227.6,7.8 M229.2,9.7c-1.2,1.5,1.4,3.1,2.4,1.6C232.7,9.8,230.1,8.2,229.2,9.7z
		"/>
	<path class="st0" d="M245.1,45.9c1.7-1.5,2.1,1.3,2.4,2.4c6.7,1,12.1,6.5,12.9,13.2c1.5,0.2,2.8,0.8,3.1,2.5
		c-0.8,0.1-2.3,0.3-3.1,0.4c-0.9,6.8-6.4,12.2-13.2,13.2c-0.5,1.1-0.8,4.1-2.5,2.2c-0.2-0.6-0.5-1.7-0.7-2.3
		c-6.7-1.1-12-6.5-12.9-13.2c-1.6-0.1-2.6-0.8-2.9-2.3c0.7-0.2,2.2-0.7,2.9-0.9c1.1-6.6,6.6-12,13.3-12.8
		C244.6,47.7,244.9,46.5,245.1,45.9 M239.3,55.3c-4.2,3.4-4.7,10.4-1,14.3c1.7,2.1,4.4,3,7,3.3c7.1,0.5,12.4-7.4,9.5-13.8
		C252.6,53,244.1,51.1,239.3,55.3z"/>
	<path class="st0" d="M242.7,60.5c2.5,0.5,2.4-2,3-3.7c0.4,1,0.8,2.1,1.3,3.1c2,0.7,4.4-1.5,6.4-2.1c-1.6,1.5-3.2,2.9-4.9,4.2
		c4.2-0.4,0.4,2-0.2,3.6c-0.5,0-1.5,0.1-2,0.1c-0.2,1.1-0.4,2.1-0.6,3.2c-0.5-1.3-1-2.6-1.6-3.9c-2.1,1-4.3,2-6.4,2.9
		c1.6-1.5,3.2-2.9,4.9-4.3c-0.7-0.3-2.2-0.8-3-1.1c1.5-0.4,2.9-0.4,4.3,0.2c0.5-0.5,0.8-1.1,0.9-1.7c-0.4,0-1.1-0.1-1.4-0.1
		L242.7,60.5 M247.4,63c-0.3,0.5-0.8,1.4-1.1,1.9C247.6,66,249.1,63.4,247.4,63z"/>
</g>
<g id="_x23_ffffffff">
	<path class="st1" d="M28.2,20.2c4.5-1,9.3-0.4,13.9-0.5c2.4,0.1,5.5-0.2,7.2,1.9c1.8,2.6,1.3,5.9,1.7,8.9c-2.5,0-4.9,0-7.4,0
		c-0.2-1.5-0.3-2.9-0.5-4.4c-3.6-0.2-7.3-0.2-10.9,0c-0.1,2-0.2,4.1-0.2,6.1c5.2,1.1,10.6,1,15.8,2.2c2.8,0.8,3.5,4,3.6,6.5
		c0.1,3.5,0.4,7.5-1.5,10.6c-2,2.8-5.8,2.2-8.8,2.3c-4.5-0.2-9.1,0.5-13.6-0.6c-4.1-1.7-3.2-7-3.6-10.6c2.5,0,5,0,7.5,0
		c0.1,1.6,0.3,3.1,0.4,4.7c4,0.3,7.9,0.3,11.9,0c0.1-2,0.3-4.1,0-6.2c-5.1-2-11-0.8-16.2-2.8c-3.2-1.5-3-5.6-3.1-8.6
		C24.3,26.5,24.4,21.7,28.2,20.2z"/>
	<path class="st1" d="M54.8,25.8c0-2,0-4.1,0-6.1c5.2,0,10.4,0,15.6,0c0,2,0,4.1,0,6.1c-1.3,0-2.6,0-3.9,0c0,2.6,0,5.1,0,7.6
		c3.8,0,7.7,0,11.5,0c0-2.5,0-5.1,0-7.6c-1.3,0-2.6,0-3.9,0c0-2,0-4.1,0-6.1c5.2,0,10.4,0,15.6,0c0,2,0,4.1,0,6.1
		c-1.4,0-2.7,0-4.1,0c0,7.3,0,14.6,0,22c1,0,3.1,0,4.1,0c0,2.1,0,4.1,0,6.2c-5.2,0-10.4,0-15.6,0c0-2.1,0-4.1,0-6.2
		c1.3,0,2.6,0,3.8,0c0-2.8,0-5.7,0-8.5c-3.8,0-7.7,0-11.5,0c0,2.8,0,5.6,0,8.4c1.3,0,2.6,0,3.9,0c0,2.1,0,4.1,0,6.2
		c-5.2,0-10.4,0-15.6,0c0-2,0-4.1,0-6.2c1.4,0,2.7,0,4.1,0c0-7.3,0-14.6,0-21.9C57.5,25.8,56.2,25.8,54.8,25.8z"/>
	<path class="st1" d="M92.9,19.7c5.4,0.1,10.8-0.2,16.2,0.1c1.7-0.3,1.9,1.5,2.2,2.7c1.7,7.1,2.9,14.3,5,21.3c2.1-7.9,3.5-16,5.6-24
		c5.8-0.2,11.6-0.1,17.4-0.1c0,2,0,4.1,0,6.1c-1.4,0-2.8,0-4.1,0c0,7.3,0,14.6,0,21.9c1.4,0,2.7,0,4.1,0c0,2.1,0,4.1,0,6.2
		c-4.9,0-9.9,0-14.8,0c0-2,0-4.1,0-6.2c0.8,0,2.3,0,3,0c-0.2-7.1,0.4-14.3-0.3-21.3c-2.9,9-4.5,18.4-7.2,27.4
		c-2.8-0.1-5.8,0.6-8.4-0.4c-3-8.9-4.1-18.3-7.4-27.1c-0.3,7.1,0,14.3-0.1,21.4c0.8,0,2.3,0,3.1,0c0,2.1,0,4.1,0,6.2
		c-4.7,0-9.4,0-14.2,0c0-2,0-4.1,0-6.2c1.4,0,2.7,0,4.1,0c0-7.3,0-14.6,0-22c-1.4,0-2.7,0-4.1,0C92.9,23.8,92.9,21.7,92.9,19.7z"/>
</g>
<g id="_x23_000433ff">
	<path class="st2" d="M217.3,49.7c1.3,0,2.5,0,3.8,0.1c0,1.6,0,3.2,0,4.8c1.3,0,2.7,0,4,0c0,0.8,0,2.4,0,3.2c-1.4,0-2.7,0.1-4.1,0.1
		c0.1,3.6-0.2,7.3,0.3,10.9c1.2,0.4,2.4,0.6,3.7,0.6c0,0.7,0,2.2,0,3c-2.5,0.4-6.4,1.1-7.5-2c-0.9-3.9,0-8-0.5-12
		c-0.5-0.2-1.6-0.8-2.1-1c0.2-1.5,0.4-2.9,2.2-3.2C217.3,52.6,217.3,51.1,217.3,49.7z"/>
	<path class="st2" d="M203.8,54.9c2.9-1.3,6,0,8.8,1.1c-0.5,1-1.1,1.9-1.6,2.9c-2-0.8-6.6-2.9-6.7,0.8c2.1,2.4,5.8,2.7,7.7,5.3
		c1.7,2.6,0.2,6.5-2.8,7.4c-3.2,1.2-6.5-0.3-9.4-1.7c0.6-1,1.1-1.9,1.7-2.9c2.1,0.9,5.2,3.2,7.2,1c1.4-1.2-0.5-2.6-1.5-3
		c-1.9-1.1-4.1-1.8-5.6-3.4C199.8,59.9,201,56,203.8,54.9z"/>
	<path class="st2" d="M279,68.9c-3.3-5.5-0.4-15.3,7-14.7c5.3,0.3,7,6.3,7,10.7c-3.9,0.1-7.8,0-11.8,0.1c0.9,1.7,1.5,4,3.7,4.4
		c2,0.4,3.9-1,5.8-1.3c0.7,0.7,1.8,2.5,0.3,3C287.4,74,281.3,73.2,279,68.9 M281.2,62.3c2.7,0.1,5.5,0.1,8.2,0
		c-0.8-2-1.5-5.3-4.4-4.8C282.5,57.6,282.1,60.5,281.2,62.3z"/>
	<path class="st2" d="M266.4,72.6c-0.1-6-0.1-12.1,0-18.1c1,0,2.9,0.1,3.8,0.1c-0.1,0.8-0.2,2.3-0.3,3c1.5-1.7,3.3-3.1,5.5-3.7
		c0,1,0.1,3.1,0.1,4.2c-1.8,0.7-4.2,1.3-4.9,3.4c-0.9,3.6-0.4,7.3-0.5,10.9C269.2,72.5,267.3,72.5,266.4,72.6z"/>
</g>
</svg>
